<svg xmlns="http://www.w3.org/2000/svg" width="32" height="34" viewBox="0 0 32 34">
    <g fill="none" fill-rule="evenodd" transform="translate(0 1)">
        <path fill="#36B5BB" fill-rule="nonzero" d="M16.178 32.644a1.038 1.038 0 0 1-.258-.033c-.762-.257-1.563-.652-2.4-1.184a20.377 20.377 0 0 1-2.522-1.91 27.453 27.453 0 0 1-2.49-2.505 31.033 31.033 0 0 1-2.304-2.973 38.674 38.674 0 0 1-1.982-3.327 30.521 30.521 0 0 1-1.845-4.238 34.64 34.64 0 0 1-1.353-5.108C.674 9.524.5 7.544.5 5.428c0-.225.08-.419.242-.58a.791.791 0 0 1 .58-.242c1.16 0 2.449-.174 3.867-.523a41.23 41.23 0 0 0 7.896-2.852C14.222.677 15.098.197 15.71-.211a.79.79 0 0 1 .46-.145.79.79 0 0 1 .458.145c.613.408 1.49.888 2.635 1.442A42.086 42.086 0 0 0 23.01 2.81c1.354.5 2.737.924 4.15 1.273 1.412.349 2.698.523 3.859.523a.81.81 0 0 1 .596.242.791.791 0 0 1 .241.58c0 2.116-.177 4.096-.531 5.938a36.026 36.026 0 0 1-1.354 5.108 29.896 29.896 0 0 1-1.837 4.238 36 36 0 0 1-1.998 3.327 29.262 29.262 0 0 1-2.288 2.973 27.453 27.453 0 0 1-2.49 2.506 20.377 20.377 0 0 1-2.521 1.909c-.838.532-1.638.927-2.401 1.184a1.087 1.087 0 0 1-.258.033zM2.16 6.218c.043 1.912.239 3.703.588 5.374a33.45 33.45 0 0 0 1.297 4.624 29.913 29.913 0 0 0 1.7 3.851 31.431 31.431 0 0 0 1.829 3.037 27.829 27.829 0 0 0 4.56 5.213c.752.66 1.474 1.211 2.167 1.652.693.44 1.319.768 1.877.983.559-.215 1.185-.543 1.877-.983.693-.44 1.416-.991 2.168-1.652a27.203 27.203 0 0 0 2.296-2.296 26.385 26.385 0 0 0 2.248-2.917 32.505 32.505 0 0 0 1.837-3.037 29.187 29.187 0 0 0 1.708-3.85 32.733 32.733 0 0 0 1.289-4.625c.343-1.67.542-3.462.596-5.374a18.6 18.6 0 0 1-2.063-.25 25.34 25.34 0 0 1-2.054-.451 36.345 36.345 0 0 1-1.95-.572 58.842 58.842 0 0 1-1.748-.596c-.58-.226-1.16-.46-1.74-.701a50.357 50.357 0 0 1-1.676-.733 33.44 33.44 0 0 1-1.515-.742 18.541 18.541 0 0 1-1.273-.725c-.376.237-.803.478-1.28.725-.479.247-.984.494-1.515.742-.532.247-1.088.491-1.668.733-.58.241-1.166.475-1.757.7-.526.194-1.103.393-1.732.597-.628.204-1.28.395-1.957.572-.677.177-1.362.327-2.055.451a18.31 18.31 0 0 1-2.054.25zm12.359 14.05a.86.86 0 0 1-.299-.056.78.78 0 0 1-.282-.185l-3.303-3.287a.8.8 0 0 1-.241-.588.8.8 0 0 1 .241-.589.8.8 0 0 1 .588-.241.8.8 0 0 1 .589.241l2.707 2.724 7.67-7.67a.8.8 0 0 1 .588-.242.8.8 0 0 1 .588.242.791.791 0 0 1 .241.58c0 .225-.08.419-.241.58l-8.25 8.25a.78.78 0 0 1-.282.185.902.902 0 0 1-.314.057z"/>
        <circle cx="24" cy="27" r="6" fill="#F9C339"/>
        <path fill="#FFF" fill-rule="nonzero" d="M22.503 24.857a1.5 1.5 0 0 0-1.384.894c-.08.178-.119.368-.119.57 0 .263.047.517.141.764.094.247.215.482.362.705.147.224.31.432.491.625.18.193.358.365.533.518.154.14.307.267.46.382a11.32 11.32 0 0 0 1.015.685l.236-.146a11.281 11.281 0 0 0 .777-.539 7.863 7.863 0 0 0 .992-.9c.182-.193.346-.401.493-.625.147-.223.267-.458.36-.705.093-.247.14-.501.14-.764 0-.202-.04-.392-.117-.57a1.454 1.454 0 0 0-.322-.466 1.533 1.533 0 0 0-1.06-.428c-.15 0-.296.027-.44.08a1.67 1.67 0 0 0-.708.51c-.087.11-.15.218-.186.326a.17.17 0 0 1-.064.084.175.175 0 0 1-.207 0 .17.17 0 0 1-.063-.084 1.105 1.105 0 0 0-.186-.327 1.602 1.602 0 0 0-.705-.508 1.242 1.242 0 0 0-.44-.08z"/>
    </g>
</svg>
